<svg width="20" height="20" viewBox="0 0 20 20" fill="none" xmlns="http://www.w3.org/2000/svg">
<mask id="mask0_1135_1080" style="mask-type:luminance" maskUnits="userSpaceOnUse" x="0" y="1" width="20" height="19">
<path fill-rule="evenodd" clip-rule="evenodd" d="M0 1H20V19.3333H0V1Z" fill="white"/>
</mask>
<g mask="url(#mask0_1135_1080)">
<path fill-rule="evenodd" clip-rule="evenodd" d="M16.7607 11.4142C16.7358 11.4142 16.7109 11.413 16.686 11.4104C16.5094 11.3924 16.4099 11.2823 16.2254 11.0349L14.9688 9.33453L14.625 9.68249V10.9608C14.625 11.2194 14.4194 11.4144 14.1469 11.4144C13.8606 11.4144 13.6681 11.232 13.6681 10.9608V7.03069C13.6681 6.75975 13.8695 6.563 14.1469 6.563C14.4328 6.563 14.625 6.75098 14.625 7.03069V8.5523L16.3097 6.809C16.385 6.73517 16.5076 6.6355 16.6902 6.6355C16.9214 6.64163 17.1539 6.79409 17.1478 7.07331C17.1478 7.2039 17.0691 7.29006 16.9124 7.46174C16.8769 7.50054 16.8378 7.5433 16.7954 7.59143L15.6439 8.7446L17.0061 10.5149C17.1469 10.6972 17.2635 10.848 17.238 11.0416C17.2007 11.3874 16.8632 11.4142 16.7607 11.4142ZM12.7985 11.3612H11.0156C10.7024 11.3612 10.5154 11.1647 10.5154 10.8357V7.05883C10.5154 6.75307 10.6988 6.563 10.994 6.563C11.2889 6.563 11.4721 6.75307 11.4721 7.05883V10.4972H12.7985C12.9417 10.4972 13.0608 10.5429 13.1429 10.6294C13.2215 10.712 13.2626 10.8277 13.2556 10.9467C13.2497 11.1485 13.0876 11.3612 12.7985 11.3612ZM9.11352 11.0849L8.90441 10.4356H6.90575L6.69138 11.0776C6.61657 11.3076 6.47048 11.4147 6.23141 11.4147C5.9675 11.4147 5.76063 11.2219 5.76063 10.9757C5.76063 10.8782 5.7901 10.8032 5.80435 10.7673L7.19281 7.11664C7.29232 6.84904 7.53132 6.56342 7.90427 6.56342C8.23204 6.56342 8.49174 6.76463 8.61678 7.11545L9.96251 10.7604C10.0052 10.8747 10.0167 10.9676 10.0167 11.0043C10.0167 11.2344 9.82491 11.4147 9.58029 11.4147C9.34024 11.4147 9.18762 11.3069 9.11352 11.0849ZM4.95214 10.9176C4.95214 11.2239 4.76878 11.4144 4.47364 11.4144C4.17886 11.4144 3.99557 11.2239 3.99557 10.9176V7.46968H2.9894C2.67377 7.46968 2.56185 7.23734 2.56185 7.03828C2.56185 6.82864 2.71166 6.60569 2.9894 6.60569H5.95754C6.23584 6.60569 6.38614 6.82864 6.38614 7.03828C6.38614 7.23734 6.27387 7.46968 5.95754 7.46968H4.95214V10.9176ZM0 8.84154C0 11.6258 1.85138 14.0715 4.64115 15.4627L3.69869 18.9574C3.66374 19.061 3.69013 19.1734 3.76738 19.2501C3.8231 19.3054 3.89664 19.3334 3.97011 19.3334C4.03284 19.3334 4.09536 19.3135 4.14799 19.2723L8.20209 16.5562C8.78528 16.639 9.38629 16.6828 10 16.6828C15.5228 16.6828 20 13.1724 20 8.84154C20 4.51099 15.5228 1 10 1C4.4773 1 0 4.51099 0 8.84154Z" fill="#444444"/>
</g>
<path fill-rule="evenodd" clip-rule="evenodd" d="M7.89497 7.43344L7.17432 9.59423H8.63548L7.91363 7.43344C7.91069 7.42453 7.89791 7.42453 7.89497 7.43344Z" fill="#444444"/>
</svg>
