<svg width="20" height="20" viewBox="0 0 20 20" fill="none" xmlns="http://www.w3.org/2000/svg">
<mask id="mask0_1135_1099" style="mask-type:luminance" maskUnits="userSpaceOnUse" x="1" y="1" width="18" height="18">
<path fill-rule="evenodd" clip-rule="evenodd" d="M1 1H19V19H1V1Z" fill="white"/>
</mask>
<g mask="url(#mask0_1135_1099)">
<path fill-rule="evenodd" clip-rule="evenodd" d="M9.99998 1C7.55575 1 7.24922 1.01036 6.28931 1.05416C5.33133 1.09785 4.67712 1.25001 4.10462 1.47251C3.51283 1.70247 3.01088 2.01021 2.51055 2.51055C2.01018 3.01092 1.70247 3.51283 1.47247 4.10462C1.24997 4.67712 1.09785 5.33133 1.05412 6.28931C1.01032 7.24926 1 7.55571 1 9.99998C1 12.4443 1.01032 12.7507 1.05412 13.7107C1.09785 14.6686 1.24997 15.3229 1.47247 15.8953C1.70247 16.4871 2.01018 16.9891 2.51055 17.4894C3.01088 17.9898 3.51283 18.2975 4.10462 18.5275C4.67712 18.75 5.33133 18.9022 6.28931 18.9459C7.24922 18.9896 7.55575 19 9.99998 19C12.4443 19 12.7507 18.9896 13.7107 18.9459C14.6686 18.9022 15.3228 18.75 15.8953 18.5275C16.4872 18.2975 16.9891 17.9898 17.4894 17.4894C17.9898 16.9891 18.2975 16.4872 18.5275 15.8953C18.75 15.3229 18.9021 14.6686 18.9458 13.7107C18.9896 12.7507 19 12.4443 19 9.99998C19 7.55575 18.9896 7.24926 18.9458 6.28931C18.9021 5.33133 18.75 4.67712 18.5275 4.10462C18.2975 3.51283 17.9898 3.01092 17.4894 2.51055C16.9891 2.01021 16.4872 1.70247 15.8953 1.47251C15.3228 1.25001 14.6686 1.09785 13.7107 1.05416C12.7507 1.01036 12.4443 1 9.99998 1ZM9.99995 2.62162C12.4031 2.62162 12.6877 2.63077 13.6367 2.67407C14.5142 2.71411 14.9907 2.86073 15.3079 2.98398C15.728 3.14725 16.0278 3.34228 16.3427 3.6572C16.6577 3.97215 16.8527 4.27196 17.016 4.69206C17.1392 5.0092 17.2858 5.48574 17.3259 6.36323C17.3691 7.31224 17.3783 7.5969 17.3783 9.99998C17.3783 12.4031 17.3691 12.6878 17.3259 13.6367C17.2858 14.5143 17.1392 14.9908 17.016 15.3079C16.8527 15.728 16.6577 16.0279 16.3427 16.3428C16.0278 16.6577 15.728 16.8528 15.3079 17.016C14.9907 17.1392 14.5142 17.2859 13.6367 17.3259C12.6878 17.3692 12.4032 17.3784 9.99995 17.3784C7.59665 17.3784 7.31206 17.3692 6.36319 17.3259C5.4857 17.2859 5.00912 17.1392 4.69199 17.016C4.27192 16.8528 3.97208 16.6577 3.65716 16.3428C3.34224 16.0279 3.14718 15.728 2.98391 15.3079C2.86069 14.9908 2.71408 14.5143 2.67403 13.6368C2.63073 12.6878 2.62158 12.4031 2.62158 9.99998C2.62158 7.5969 2.63073 7.31224 2.67403 6.36323C2.71408 5.48574 2.86069 5.0092 2.98391 4.69206C3.14718 4.27196 3.34224 3.97215 3.65716 3.65723C3.97208 3.34228 4.27192 3.14725 4.69199 2.98398C5.00912 2.86073 5.4857 2.71411 6.36316 2.67407C7.3122 2.63077 7.59683 2.62162 9.99995 2.62162Z" fill="#444444"/>
</g>
<path fill-rule="evenodd" clip-rule="evenodd" d="M10.2501 13.3333C8.54723 13.3333 7.16675 11.9528 7.16675 10.25C7.16675 8.54711 8.54723 7.16666 10.2501 7.16666C11.953 7.16666 13.3335 8.54711 13.3335 10.25C13.3335 11.9528 11.953 13.3333 10.2501 13.3333ZM10.25 5.5C7.62667 5.5 5.5 7.62663 5.5 10.25C5.5 12.8734 7.62667 15 10.25 15C12.8734 15 15 12.8734 15 10.25C15 7.62663 12.8734 5.5 10.25 5.5Z" fill="#444444"/>
<path fill-rule="evenodd" clip-rule="evenodd" d="M16 5C16 5.5523 15.5523 6 15 6C14.4477 6 14 5.5523 14 5C14 4.4477 14.4477 4 15 4C15.5523 4 16 4.4477 16 5Z" fill="#444444"/>
</svg>
