<svg width="14" height="14" fill="none" xmlns="http://www.w3.org/2000/svg"><path d="M1.777 14C.592 14 0 13.609 0 12.826c0-.499.15-1.027.45-1.584.3-.563.737-1.091 1.311-1.584.574-.494 1.268-.896 2.083-1.207.815-.316 1.737-.474 2.766-.474 1.019 0 1.935.158 2.75.474.815.311 1.51.713 2.083 1.207.574.493 1.01 1.02 1.31 1.584.306.557.459 1.085.459 1.584 0 .783-.592 1.174-1.777 1.174H1.777zm-.313-1.045h10.284c.13 0 .22-.02.274-.057.053-.037.08-.104.08-.2 0-.328-.123-.7-.37-1.118-.24-.424-.595-.829-1.061-1.215-.466-.386-1.043-.705-1.729-.957-.68-.257-1.458-.386-2.332-.386-.885 0-1.667.13-2.348.386-.68.252-1.257.571-1.729.957-.466.386-.82.791-1.061 1.215-.236.418-.354.79-.354 1.117 0 .097.024.164.072.201.054.038.145.057.274.057zM6.61 6.996c-.595 0-1.14-.158-1.632-.474a3.5 3.5 0 0 1-1.174-1.279 3.68 3.68 0 0 1-.435-1.777A3.448 3.448 0 0 1 4.978.474 2.962 2.962 0 0 1 6.61 0c.6 0 1.147.155 1.64.466.494.311.885.727 1.174 1.247.29.52.435 1.099.435 1.737 0 .648-.148 1.243-.443 1.785-.29.536-.68.965-1.174 1.287a2.962 2.962 0 0 1-1.632.474zm0-1.045c.391 0 .748-.11 1.07-.33.321-.225.578-.525.771-.9.199-.381.298-.805.298-1.271 0-.45-.097-.858-.29-1.223a2.268 2.268 0 0 0-.771-.86 1.935 1.935 0 0 0-1.078-.314c-.391 0-.75.108-1.078.322-.321.21-.579.499-.772.869a2.506 2.506 0 0 0-.281 1.222c0 .466.097.887.29 1.262.193.376.45.673.771.893.328.22.684.33 1.07.33z" fill="#000"/></svg>