<svg width="14" height="15" fill="none" xmlns="http://www.w3.org/2000/svg"><path d="M.6 11.83c0-.342.136-.667.41-.975.275-.312.559-.62.852-.923a1.71 1.71 0 0 0 .375-.672c.087-.279.15-.577.188-.894a36.5 36.5 0 0 0 .1-.931c.025-.847.124-1.595.297-2.245.178-.65.45-1.193.815-1.63.366-.438.847-.76 1.444-.968.105-.447.327-.825.663-1.133.342-.307.76-.461 1.256-.461.49 0 .905.154 1.241.461.342.308.568.686.679 1.133.591.207 1.068.53 1.429.967.365.438.635.982.808 1.631.178.65.281 1.398.31 2.245.024.303.056.613.094.93.043.318.108.616.195.895.086.275.211.498.375.672.294.303.577.61.852.923.274.308.411.633.411.974a.678.678 0 0 1-.253.549c-.163.14-.39.21-.678.21H9.447c-.02.437-.138.836-.354 1.197-.212.366-.498.66-.859.88-.36.222-.772.333-1.234.333-.467 0-.88-.111-1.241-.332a2.529 2.529 0 0 1-1.212-2.079H1.53c-.289 0-.517-.07-.686-.209a.686.686 0 0 1-.245-.549zm1.197-.18H12.19v-.08A1.094 1.094 0 0 0 12 11.28a7.015 7.015 0 0 0-.339-.375l-.375-.404a2.223 2.223 0 0 1-.347-.52 4.004 4.004 0 0 1-.23-.678 8.533 8.533 0 0 1-.145-.823 11.24 11.24 0 0 1-.08-.96c-.033-.933-.144-1.679-.331-2.237-.183-.558-.428-.979-.736-1.263a2.432 2.432 0 0 0-1.047-.584.45.45 0 0 1-.209-.101.308.308 0 0 1-.08-.21c-.019-.356-.124-.647-.317-.873-.188-.226-.443-.339-.765-.339s-.58.113-.772.34c-.192.225-.298.516-.318.872a.29.29 0 0 1-.086.21.407.407 0 0 1-.21.1c-.39.107-.738.301-1.046.585-.303.284-.548.705-.736 1.263-.188.558-.296 1.304-.325 2.237-.019.342-.048.662-.086.96a6.327 6.327 0 0 1-.145.823c-.057.25-.134.476-.23.678-.092.197-.207.37-.347.52-.12.134-.245.27-.375.404-.125.134-.236.26-.332.375a1.78 1.78 0 0 0-.195.289v.08zm3.724.937c.024.472.17.845.44 1.119.274.279.62.418 1.04.418.413 0 .754-.14 1.024-.418.274-.274.423-.647.447-1.119H5.521z" fill="#000"/></svg>