<svg width="20" height="20" viewBox="0 0 20 20" fill="none" xmlns="http://www.w3.org/2000/svg">
<g opacity="0.7">
<path d="M10 19.14C9.88855 19.14 9.7771 19.12 9.66565 19.07C3.43465 16.1 0 12.15 0 7.96C0 4.67 2.53293 2 5.63323 2C7.36575 2 8.9463 2.81 10 4.19C11.0537 2.82 12.6444 2 14.3668 2C17.4772 2 20 4.67 20 7.96C20 12.15 16.5653 16.1 10.3242 19.07C10.2229 19.12 10.1114 19.14 9.98987 19.14H10ZM5.63323 3.5C3.36373 3.5 1.51976 5.5 1.51976 7.96C1.51976 11.48 4.52887 14.88 10 17.56C15.4711 14.88 18.4802 11.48 18.4802 7.96C18.4802 5.5 16.6363 3.5 14.3668 3.5C12.8065 3.5 11.3982 4.44 10.689 5.95C10.4458 6.48 9.5542 6.48 9.31104 5.95C8.60182 4.44 7.19352 3.5 5.63323 3.5Z" fill="#202020"/>
</g>
</svg>
