<svg width="20" height="20" viewBox="0 0 20 20" fill="none" xmlns="http://www.w3.org/2000/svg">
<g opacity="0.7">
<path d="M4.82031 6.96999C5.65031 6.46999 8.19031 5.03999 8.59031 3.22999C8.69031 2.79999 8.77031 2.42999 8.84031 2.10999C9.14031 0.809987 10.6503 0.349987 11.7203 1.13999C12.3403 1.59999 12.5103 2.34999 12.2703 3.54999L11.5903 6.62999C11.5903 6.62999 12.0003 7.72999 11.8003 8.97999C11.6003 10.23 10.8403 11.52 8.58031 12.1" stroke="#202020" stroke-width="1.5" stroke-linecap="round" stroke-linejoin="round"/>
<path d="M4.82 6.96997C2.99 8.00997 1.75 9.97997 1.75 12.23C1.75 15.57 4.46 18.28 7.8 18.28H13.97" stroke="#202020" stroke-width="1.5" stroke-linecap="round" stroke-linejoin="round"/>
<path d="M18.3701 13.75V13.73C18.3701 12.9016 17.6985 12.23 16.8701 12.23H12.5301C11.7017 12.23 11.0301 12.9016 11.0301 13.73V13.75C11.0301 14.5784 11.7017 15.25 12.5301 15.25H16.8701C17.6985 15.25 18.3701 14.5784 18.3701 13.75Z" stroke="#202020" stroke-width="1.5" stroke-linecap="round" stroke-linejoin="round"/>
<path d="M11.81 9.37995C12.02 9.25995 12.27 9.19995 12.52 9.19995H16.86C17.69 9.19995 18.36 9.86995 18.36 10.7V10.72C18.36 11.55 17.69 12.22 16.86 12.22H12.52C11.77 12.22 11.15 11.67 11.04 10.95" stroke="#202020" stroke-width="1.5" stroke-linecap="round" stroke-linejoin="round"/>
<path d="M11.7793 6.85998C12.0493 6.44998 12.5093 6.16998 13.0393 6.16998H16.8693C17.6993 6.16998 18.3693 6.83998 18.3693 7.66998V7.68998C18.3693 8.51998 17.6993 9.18998 16.8693 9.18998H13.0393C12.5893 9.18998 12.1793 8.98998 11.9093 8.66998" stroke="#202020" stroke-width="1.5" stroke-linecap="round" stroke-linejoin="round"/>
<path d="M17.4102 16.76V16.74C17.4102 15.9116 16.7386 15.24 15.9102 15.24H12.5302C11.7017 15.24 11.0302 15.9116 11.0302 16.74V16.76C11.0302 17.5884 11.7017 18.26 12.5302 18.26H15.9102C16.7386 18.26 17.4102 17.5884 17.4102 16.76Z" stroke="#202020" stroke-width="1.5" stroke-linecap="round" stroke-linejoin="round"/>
</g>
</svg>
