<svg width="20" height="20" viewBox="0 0 20 20" fill="none" xmlns="http://www.w3.org/2000/svg">
<g opacity="0.7">
<path d="M11.4703 8.89V2.16C11.4703 1.38 10.8203 0.75 10.0203 0.75C9.22031 0.75 8.57031 1.38 8.57031 2.16V8.89" stroke="#202020" stroke-width="1.5" stroke-linecap="round" stroke-linejoin="round"/>
<path d="M14.3805 10.52V3.42002C14.3805 2.58002 13.7305 1.90002 12.9305 1.90002C12.1305 1.90002 11.4805 2.58002 11.4805 3.42002V8.89002" stroke="#202020" stroke-width="1.5" stroke-linecap="round" stroke-linejoin="round"/>
<path d="M16.0599 14.88L18.5799 9.14002C18.9999 8.37002 18.7399 7.42002 17.9999 7.02002C17.2599 6.62002 16.3199 6.92002 15.9099 7.70002L14.3799 10.52" stroke="#202020" stroke-width="1.5" stroke-linecap="round" stroke-linejoin="round"/>
<path d="M5.65977 8.16002V4.97002C5.65977 4.17002 5.00977 3.52002 4.20977 3.52002C3.40977 3.52002 2.75977 4.17002 2.75977 4.97002V11.71" stroke="#202020" stroke-width="1.5" stroke-linecap="round" stroke-linejoin="round"/>
<path d="M8.56016 8.89V3.01C8.56016 2.21 7.91016 1.56 7.11016 1.56C6.31016 1.56 5.66016 2.21 5.66016 3.01V8.89" stroke="#202020" stroke-width="1.5" stroke-linecap="round" stroke-linejoin="round"/>
<path d="M16.06 14.88C14.89 17.06 12.51 18.56 9.78 18.56C5.9 18.56 2.75 15.54 2.75 11.82" stroke="#202020" stroke-width="1.5" stroke-linecap="round" stroke-linejoin="round"/>
</g>
</svg>
