<svg width="115" height="19" viewBox="0 0 115 19" xmlns="http://www.w3.org/2000/svg">
    <g fill="#202020" fill-rule="nonzero">
        <path d="M.16 8.48h5.42C5 10.3 4.06 11.94 2.8 13.54l1.32.92C6.5 11.28 7.88 8.38 7.88 2.52H.7V3.9h5.58c-.02 1.14-.12 2.2-.34 3.18H.16v1.4zm11-7.36v16.72h1.62V8.6h2.82V7.16h-2.82V1.12h-1.62zM16.92 8.48h5.42c-.58 1.82-1.52 3.46-2.78 5.06l1.32.92c2.38-3.18 3.76-6.08 3.76-11.94h-7.18V3.9h5.58c-.02 1.14-.12 2.2-.34 3.18h-5.78v1.4zm11-7.36v16.72h1.62V8.6h2.82V7.16h-2.82V1.12h-1.62zM48.88 15.3v-1.36H41.7v-3.5C44.28 10.12 46 8.4 46 6.1c0-2.5-2.1-4.38-5.12-4.38-3 0-5.1 1.88-5.1 4.38 0 2.28 1.72 4.02 4.28 4.34v3.5h-7.14v1.36h15.96zM37.4 6.1c0-1.74 1.4-2.96 3.48-2.96 2.1 0 3.5 1.22 3.5 2.96 0 1.72-1.4 2.98-3.5 2.98-2.08 0-3.48-1.26-3.48-2.98zM63.28 1.12h-2.56v8.74h2.56V6.52h2.6v-2.2h-2.6v-3.2zm-.1 12.44h-7.54v-1h7.72V10.6H53.08v7.86h10.66v-1.98h-8.1v-1.04h7.54v-1.88zM50.3 1.68v2.04h5.24c-.12 1.88-2.44 3.7-5.6 4.54l.96 2.14c3.6-1.04 7.2-3.48 7.2-7.58V1.68h-7.8zM71.66 2.16c-2.96 0-4.88 2.28-4.88 5.26s1.92 5.26 4.88 5.26c2.94 0 4.8-2.28 4.8-5.26s-1.86-5.26-4.8-5.26zm0 2.14c1.3 0 2.32 1.04 2.32 3.12 0 2.06-1.02 3.12-2.32 3.12-1.28 0-2.38-1.06-2.38-3.12 0-2.08 1.08-3.12 2.38-3.12zm6.74 13.54h2.56V1.12H78.4v16.72zM91.8 2.34H84v2.12h5.28c0 3.24-2.54 5.74-5.64 7.5l1.38 2.06C88.5 12.06 91.8 8.9 91.8 3.86V2.34zm5-1.22h-2.56v16.72h2.56V8.98h2.6V6.8h-2.6V1.12zM110.98 11.28l-3.74-2.94c.76-1.32 1.24-2.84 1.24-4.5v-.76h-2.42V.86h-2.48v2.22h-2.54v2.1h4.86c-.16 2.3-2.72 4.9-5.68 6.42l1.34 1.98c1.52-.82 3.14-2 4.44-3.5l3.28 3.1 1.7-1.9zm3.5-10.16h-2.56v16.72h2.56V1.12z"/>
    </g>
</svg>
